<svg width="25" height="27" viewBox="0 0 25 27" fill="none" xmlns="http://www.w3.org/2000/svg">
<path d="M13.4921 4.25879L16.7493 12.2242L24.7155 15.4814L16.7493 18.7393L13.4921 26.7047L10.2349 18.7393L2.26953 15.4814L10.2349 12.2242L13.4921 4.25879Z" fill="#191919"/>
<path d="M13.4919 26.9735L10.1565 18.817L2 15.4816L10.1565 12.1462L13.4919 3.98975L16.8273 12.1462L24.9837 15.4816L16.8273 18.817L13.4919 26.9735ZM2.53778 15.4816L10.313 18.6605L10.3294 18.7001L13.4927 26.4357L16.6716 18.6605L16.7111 18.6441L24.4468 15.4808L16.6716 12.3019L16.6552 12.2623L13.4919 4.5267L10.313 12.3019L10.2734 12.3183L2.53778 15.4816Z" fill="#191919"/>
<path d="M11.4915 3.25793L14.7486 11.2242L22.7148 14.4813L14.7486 17.7385L11.4915 25.7039L8.2343 17.7385L0.268066 14.4813L8.2343 11.2242L11.4915 3.25793Z" fill="#5BC5D3"/>
<path d="M11.4919 25.9735L8.15648 17.817L0 14.4816L8.15648 11.1462L11.4919 2.98975L14.8273 11.1462L22.9837 14.4816L14.8273 17.817L11.4919 25.9735ZM0.536959 14.4816L8.31212 17.6605L8.32861 17.7001L11.4919 25.4357L14.6708 17.6605L14.7103 17.6441L22.446 14.4808L14.6708 11.3019L14.6543 11.2623L11.491 3.5267L8.31212 11.3019L8.27259 11.3183L0.536959 14.4816Z" fill="#191919"/>
</svg>
